<mxfile host="app.diagrams.net" agent="Mozilla/5.0 (Windows NT 10.0; Win64; x64) AppleWebKit/537.36 (KHTML, like Gecko) Chrome/135.0.0.0 Safari/537.36" version="26.2.13">
  <diagram name="Page-1" id="Ygi4Yn-CcqNMMHZYRCvq">
    <mxGraphModel dx="1044" dy="561" grid="1" gridSize="10" guides="1" tooltips="1" connect="1" arrows="1" fold="1" page="1" pageScale="1" pageWidth="850" pageHeight="1100" math="0" shadow="0">
      <root>
        <mxCell id="0" />
        <mxCell id="1" parent="0" />
        <mxCell id="e2pyPR-dJ39FMkn59MaY-1" value="" style="ellipse;whiteSpace=wrap;html=1;aspect=fixed;fillColor=#000000;" vertex="1" parent="1">
          <mxGeometry x="40" y="110" width="20" height="20" as="geometry" />
        </mxCell>
        <mxCell id="e2pyPR-dJ39FMkn59MaY-2" value="" style="rounded=1;whiteSpace=wrap;html=1;" vertex="1" parent="1">
          <mxGeometry x="210" y="70" width="170" height="100" as="geometry" />
        </mxCell>
        <mxCell id="e2pyPR-dJ39FMkn59MaY-3" value="" style="endArrow=none;html=1;rounded=0;exitX=0;exitY=0.25;exitDx=0;exitDy=0;entryX=1;entryY=0.25;entryDx=0;entryDy=0;" edge="1" parent="1" source="e2pyPR-dJ39FMkn59MaY-2" target="e2pyPR-dJ39FMkn59MaY-2">
          <mxGeometry width="50" height="50" relative="1" as="geometry">
            <mxPoint x="450" y="320" as="sourcePoint" />
            <mxPoint x="500" y="270" as="targetPoint" />
          </mxGeometry>
        </mxCell>
        <mxCell id="e2pyPR-dJ39FMkn59MaY-4" value="&lt;font style=&quot;font-size: 11px;&quot;&gt;Pedido criado&lt;/font&gt;" style="text;html=1;align=center;verticalAlign=middle;whiteSpace=wrap;rounded=0;" vertex="1" parent="1">
          <mxGeometry x="245" y="80" width="100" height="10" as="geometry" />
        </mxCell>
        <mxCell id="e2pyPR-dJ39FMkn59MaY-7" value="&lt;span style=&quot;font-size: 11px;&quot;&gt;Entrada: Exibir tela do cardápio / Saída: Ocultar tela do cardápio&lt;/span&gt;" style="text;html=1;align=left;verticalAlign=middle;whiteSpace=wrap;rounded=0;" vertex="1" parent="1">
          <mxGeometry x="220" y="110" width="150" height="50" as="geometry" />
        </mxCell>
        <mxCell id="e2pyPR-dJ39FMkn59MaY-8" value="" style="endArrow=classic;html=1;rounded=0;exitX=1;exitY=0.5;exitDx=0;exitDy=0;entryX=0;entryY=0.5;entryDx=0;entryDy=0;" edge="1" parent="1" source="e2pyPR-dJ39FMkn59MaY-1" target="e2pyPR-dJ39FMkn59MaY-2">
          <mxGeometry width="50" height="50" relative="1" as="geometry">
            <mxPoint x="60" y="210" as="sourcePoint" />
            <mxPoint x="110" y="160" as="targetPoint" />
          </mxGeometry>
        </mxCell>
        <mxCell id="e2pyPR-dJ39FMkn59MaY-9" value="&lt;font style=&quot;font-size: 10px;&quot;&gt;acessarCardapio()&lt;/font&gt;" style="text;html=1;align=center;verticalAlign=middle;whiteSpace=wrap;rounded=0;" vertex="1" parent="1">
          <mxGeometry x="90" y="90" width="100" height="20" as="geometry" />
        </mxCell>
        <mxCell id="e2pyPR-dJ39FMkn59MaY-10" value="" style="endArrow=classic;html=1;rounded=0;exitX=1;exitY=0.75;exitDx=0;exitDy=0;entryX=0.857;entryY=1.018;entryDx=0;entryDy=0;entryPerimeter=0;" edge="1" parent="1" source="e2pyPR-dJ39FMkn59MaY-2" target="e2pyPR-dJ39FMkn59MaY-2">
          <mxGeometry width="50" height="50" relative="1" as="geometry">
            <mxPoint x="440" y="160" as="sourcePoint" />
            <mxPoint x="340" y="220" as="targetPoint" />
            <Array as="points">
              <mxPoint x="430" y="145" />
              <mxPoint x="430" y="180" />
              <mxPoint x="430" y="220" />
              <mxPoint x="356" y="220" />
            </Array>
          </mxGeometry>
        </mxCell>
        <mxCell id="e2pyPR-dJ39FMkn59MaY-11" value="&lt;span style=&quot;font-size: 10px;&quot;&gt;atualizarPedido()&lt;/span&gt;" style="text;html=1;align=center;verticalAlign=middle;whiteSpace=wrap;rounded=0;" vertex="1" parent="1">
          <mxGeometry x="430" y="170" width="100" height="20" as="geometry" />
        </mxCell>
        <mxCell id="e2pyPR-dJ39FMkn59MaY-13" value="" style="rounded=1;whiteSpace=wrap;html=1;" vertex="1" parent="1">
          <mxGeometry x="570" y="70" width="170" height="100" as="geometry" />
        </mxCell>
        <mxCell id="e2pyPR-dJ39FMkn59MaY-14" value="&lt;span style=&quot;font-size: 11px;&quot;&gt;Entrada: Exibir tela de checkout / Saída: Ocultar tela de checkout&lt;/span&gt;" style="text;html=1;align=left;verticalAlign=middle;whiteSpace=wrap;rounded=0;" vertex="1" parent="1">
          <mxGeometry x="580" y="110" width="150" height="50" as="geometry" />
        </mxCell>
        <mxCell id="e2pyPR-dJ39FMkn59MaY-15" value="&lt;span style=&quot;font-size: 11px;&quot;&gt;Checkout pendente&lt;/span&gt;" style="text;html=1;align=center;verticalAlign=middle;whiteSpace=wrap;rounded=0;" vertex="1" parent="1">
          <mxGeometry x="605" y="80" width="100" height="10" as="geometry" />
        </mxCell>
        <mxCell id="e2pyPR-dJ39FMkn59MaY-16" value="" style="endArrow=none;html=1;rounded=0;exitX=0;exitY=0.25;exitDx=0;exitDy=0;entryX=1;entryY=0.25;entryDx=0;entryDy=0;" edge="1" parent="1">
          <mxGeometry width="50" height="50" relative="1" as="geometry">
            <mxPoint x="570" y="99.17" as="sourcePoint" />
            <mxPoint x="740" y="99.17" as="targetPoint" />
          </mxGeometry>
        </mxCell>
        <mxCell id="e2pyPR-dJ39FMkn59MaY-17" value="" style="endArrow=classic;html=1;rounded=0;exitX=1;exitY=0.5;exitDx=0;exitDy=0;entryX=0;entryY=0.4;entryDx=0;entryDy=0;entryPerimeter=0;" edge="1" parent="1" target="e2pyPR-dJ39FMkn59MaY-13">
          <mxGeometry width="50" height="50" relative="1" as="geometry">
            <mxPoint x="380" y="110" as="sourcePoint" />
            <mxPoint x="530" y="110" as="targetPoint" />
          </mxGeometry>
        </mxCell>
        <mxCell id="e2pyPR-dJ39FMkn59MaY-18" value="&lt;span style=&quot;font-size: 10px;&quot;&gt;solicitarCheckout()&lt;/span&gt;" style="text;html=1;align=center;verticalAlign=middle;whiteSpace=wrap;rounded=0;" vertex="1" parent="1">
          <mxGeometry x="425" y="80" width="100" height="20" as="geometry" />
        </mxCell>
        <mxCell id="e2pyPR-dJ39FMkn59MaY-20" value="" style="rounded=1;whiteSpace=wrap;html=1;" vertex="1" parent="1">
          <mxGeometry x="570" y="280" width="170" height="100" as="geometry" />
        </mxCell>
        <mxCell id="e2pyPR-dJ39FMkn59MaY-21" value="&lt;span style=&quot;font-size: 11px;&quot;&gt;Entrada: Exibir tela de pagamento / Saída: redirecionar para as fichas geradas&lt;/span&gt;" style="text;html=1;align=left;verticalAlign=middle;whiteSpace=wrap;rounded=0;" vertex="1" parent="1">
          <mxGeometry x="580" y="320" width="150" height="50" as="geometry" />
        </mxCell>
        <mxCell id="e2pyPR-dJ39FMkn59MaY-22" value="&lt;span style=&quot;font-size: 11px;&quot;&gt;Pagamento solicitado&lt;/span&gt;" style="text;html=1;align=center;verticalAlign=middle;whiteSpace=wrap;rounded=0;" vertex="1" parent="1">
          <mxGeometry x="597.5" y="290" width="115" height="10" as="geometry" />
        </mxCell>
        <mxCell id="e2pyPR-dJ39FMkn59MaY-23" value="" style="endArrow=none;html=1;rounded=0;exitX=0;exitY=0.25;exitDx=0;exitDy=0;entryX=1;entryY=0.25;entryDx=0;entryDy=0;" edge="1" parent="1">
          <mxGeometry width="50" height="50" relative="1" as="geometry">
            <mxPoint x="570" y="310" as="sourcePoint" />
            <mxPoint x="740" y="310" as="targetPoint" />
          </mxGeometry>
        </mxCell>
        <mxCell id="e2pyPR-dJ39FMkn59MaY-24" value="" style="endArrow=classic;html=1;rounded=0;exitX=0.5;exitY=1;exitDx=0;exitDy=0;entryX=0.5;entryY=0;entryDx=0;entryDy=0;" edge="1" parent="1" source="e2pyPR-dJ39FMkn59MaY-13" target="e2pyPR-dJ39FMkn59MaY-20">
          <mxGeometry width="50" height="50" relative="1" as="geometry">
            <mxPoint x="605" y="220" as="sourcePoint" />
            <mxPoint x="795" y="220" as="targetPoint" />
          </mxGeometry>
        </mxCell>
        <mxCell id="e2pyPR-dJ39FMkn59MaY-25" value="&lt;span style=&quot;font-size: 10px;&quot;&gt;solicitarMetodoDePagamento()&lt;/span&gt;" style="text;html=1;align=center;verticalAlign=middle;whiteSpace=wrap;rounded=0;" vertex="1" parent="1">
          <mxGeometry x="680" y="210" width="100" height="20" as="geometry" />
        </mxCell>
        <mxCell id="e2pyPR-dJ39FMkn59MaY-26" value="" style="rounded=1;whiteSpace=wrap;html=1;" vertex="1" parent="1">
          <mxGeometry x="220" y="280" width="170" height="100" as="geometry" />
        </mxCell>
        <mxCell id="e2pyPR-dJ39FMkn59MaY-27" value="&lt;span style=&quot;font-size: 11px;&quot;&gt;Pagamento confirmado&lt;/span&gt;" style="text;html=1;align=center;verticalAlign=middle;whiteSpace=wrap;rounded=0;" vertex="1" parent="1">
          <mxGeometry x="240" y="290" width="130" height="10" as="geometry" />
        </mxCell>
        <mxCell id="e2pyPR-dJ39FMkn59MaY-29" value="" style="endArrow=none;html=1;rounded=0;exitX=0;exitY=0.25;exitDx=0;exitDy=0;entryX=1;entryY=0.25;entryDx=0;entryDy=0;" edge="1" parent="1">
          <mxGeometry width="50" height="50" relative="1" as="geometry">
            <mxPoint x="220" y="310" as="sourcePoint" />
            <mxPoint x="390" y="310" as="targetPoint" />
          </mxGeometry>
        </mxCell>
        <mxCell id="e2pyPR-dJ39FMkn59MaY-30" value="&lt;span style=&quot;font-size: 11px;&quot;&gt;Entrada: Exibir tela das fichas adquiridas&lt;/span&gt;" style="text;html=1;align=left;verticalAlign=middle;whiteSpace=wrap;rounded=0;" vertex="1" parent="1">
          <mxGeometry x="230" y="320" width="150" height="50" as="geometry" />
        </mxCell>
        <mxCell id="e2pyPR-dJ39FMkn59MaY-31" value="" style="endArrow=classic;html=1;rounded=0;exitX=0;exitY=0.5;exitDx=0;exitDy=0;entryX=1;entryY=0.5;entryDx=0;entryDy=0;" edge="1" parent="1" source="e2pyPR-dJ39FMkn59MaY-20" target="e2pyPR-dJ39FMkn59MaY-26">
          <mxGeometry width="50" height="50" relative="1" as="geometry">
            <mxPoint x="610" y="380" as="sourcePoint" />
            <mxPoint x="610" y="490" as="targetPoint" />
          </mxGeometry>
        </mxCell>
        <mxCell id="e2pyPR-dJ39FMkn59MaY-32" value="&lt;span style=&quot;font-size: 10px;&quot;&gt;Pagamento Recebido&lt;/span&gt;" style="text;html=1;align=center;verticalAlign=middle;whiteSpace=wrap;rounded=0;" vertex="1" parent="1">
          <mxGeometry x="425" y="340" width="125" height="20" as="geometry" />
        </mxCell>
        <mxCell id="e2pyPR-dJ39FMkn59MaY-33" value="" style="endArrow=classic;html=1;rounded=0;exitX=0;exitY=0.5;exitDx=0;exitDy=0;entryX=0.12;entryY=1.012;entryDx=0;entryDy=0;entryPerimeter=0;" edge="1" parent="1" source="e2pyPR-dJ39FMkn59MaY-26" target="e2pyPR-dJ39FMkn59MaY-26">
          <mxGeometry width="50" height="50" relative="1" as="geometry">
            <mxPoint x="420" y="330" as="sourcePoint" />
            <mxPoint x="220" y="460" as="targetPoint" />
            <Array as="points">
              <mxPoint x="150" y="330" />
              <mxPoint x="150" y="450" />
              <mxPoint x="240" y="450" />
            </Array>
          </mxGeometry>
        </mxCell>
        <mxCell id="e2pyPR-dJ39FMkn59MaY-34" value="&lt;span style=&quot;font-size: 10px;&quot;&gt;validarFicha()&lt;/span&gt;" style="text;html=1;align=center;verticalAlign=middle;whiteSpace=wrap;rounded=0;" vertex="1" parent="1">
          <mxGeometry x="60" y="380" width="90" height="20" as="geometry" />
        </mxCell>
      </root>
    </mxGraphModel>
  </diagram>
</mxfile>
